{"accessors" : [{"bufferView" : 0, "byteOffset" : 0, "componentType" : 5123, "count" : 1680, "type" : "SCALAR", "max" : [1343], "min" : [0]}, {"bufferView" : 1, "byteOffset" : 0, "componentType" : 5126, "count" : 1344, "type" : "VEC3", "max" : [3145.385986328125, 27.015771865844727, 0], "min" : [1581.944091796875, -1950.5220947265625, -500], "name" : "POSITION"}, {"bufferView" : 0, "byteOffset" : 3360, "componentType" : 5123, "count" : 1854, "type" : "SCALAR", "max" : [1491], "min" : [0]}, {"bufferView" : 2, "byteOffset" : 0, "componentType" : 5126, "count" : 1492, "type" : "VEC3", "max" : [7246.2646484375, 27.015771865844727, 0], "min" : [5437.26220703125, -1973.0294189453125, -500], "name" : "POSITION"}, {"bufferView" : 0, "byteOffset" : 7068, "componentType" : 5123, "count" : 2388, "type" : "SCALAR", "max" : [1904], "min" : [0]}, {"bufferView" : 3, "byteOffset" : 0, "componentType" : 5126, "count" : 1905, "type" : "VEC3", "max" : [8731.9638671875, 27.015771865844727, 0], "min" : [6685.244140625, -1950.5220947265625, -500], "name" : "POSITION"}, {"bufferView" : 0, "byteOffset" : 11844, "componentType" : 5123, "count" : 5166, "type" : "SCALAR", "max" : [4115], "min" : [0]}, {"bufferView" : 4, "byteOffset" : 0, "componentType" : 5126, "count" : 4116, "type" : "VEC3", "max" : [5148.86083984375, 49.523094177246094, 0], "min" : [3339.400390625, -1973.0294189453125, -500], "name" : "POSITION"}, {"bufferView" : 0, "byteOffset" : 22176, "componentType" : 5123, "count" : 2766, "type" : "SCALAR", "max" : [2233], "min" : [0]}, {"bufferView" : 5, "byteOffset" : 0, "componentType" : 5126, "count" : 2234, "type" : "VEC3", "max" : [11194.8837890625, 27.015771865844727, 0], "min" : [9297.265625, -1950.5220947265625, -500], "name" : "POSITION"}, {"bufferView" : 0, "byteOffset" : 27708, "componentType" : 5123, "count" : 3990, "type" : "SCALAR", "max" : [3197], "min" : [0]}, {"bufferView" : 6, "byteOffset" : 0, "componentType" : 5126, "count" : 3198, "type" : "VEC3", "max" : [14699.501953125, 27.015771865844727, 0], "min" : [12667.724609375, -1973.0294189453125, -500], "name" : "POSITION"}, {"bufferView" : 0, "byteOffset" : 35688, "componentType" : 5123, "count" : 1542, "type" : "SCALAR", "max" : [1227], "min" : [0]}, {"bufferView" : 7, "byteOffset" : 0, "componentType" : 5126, "count" : 1228, "type" : "VEC3", "max" : [1336.001708984375, 27.015771865844727, 0], "min" : [10.925530433654785, -1950.5220947265625, -500], "name" : "POSITION"}, {"bufferView" : 0, "byteOffset" : 38772, "componentType" : 5123, "count" : 5166, "type" : "SCALAR", "max" : [4115], "min" : [0]}, {"bufferView" : 8, "byteOffset" : 0, "componentType" : 5126, "count" : 4116, "type" : "VEC3", "max" : [12547.712890625, 49.523094177246094, 0], "min" : [10738.251953125, -1973.0294189453125, -500], "name" : "POSITION"}], "asset" : {"generator" : "Aspose.3D 21.10", "version" : "2.0"}, "buffers" : [{"uri" : "data:application/octet-stream;base64,", "byteLength" : 343764}], "bufferViews" : [{"buffer" : 0, "byteOffset" : 0, "byteLength" : 49104, "target" : 34963}, {"buffer" : 0, "byteOffset" : 49108, "byteLength" : 20160, "byteStride" : 12, "target" : 34962}, {"buffer" : 0, "byteOffset" : 69272, "byteLength" : 22248, "byteStride" : 12, "target" : 34962}, {"buffer" : 0, "byteOffset" : 91524, "byteLength" : 28656, "byteStride" : 12, "target" : 34962}, {"buffer" : 0, "byteOffset" : 120184, "byteLength" : 61992, "byteStride" : 12, "target" : 34962}, {"buffer" : 0, "byteOffset" : 182180, "byteLength" : 33192, "byteStride" : 12, "target" : 34962}, {"buffer" : 0, "byteOffset" : 215376, "byteLength" : 47880, "byteStride" : 12, "target" : 34962}, {"buffer" : 0, "byteOffset" : 263260, "byteLength" : 18504, "byteStride" : 12, "target" : 34962}, {"buffer" : 0, "byteOffset" : 281768, "byteLength" : 61992, "byteStride" : 12, "target" : 34962}], "meshes" : [{"primitives" : [{"attributes" : {"POSITION" : 1}, "indices" : 0, "mode" : 4}], "name" : ""}, {"primitives" : [{"attributes" : {"POSITION" : 3}, "indices" : 2, "mode" : 4}], "name" : ""}, {"primitives" : [{"attributes" : {"POSITION" : 5}, "indices" : 4, "mode" : 4}], "name" : ""}, {"primitives" : [{"attributes" : {"POSITION" : 7}, "indices" : 6, "mode" : 4}], "name" : ""}, {"primitives" : [{"attributes" : {"POSITION" : 9}, "indices" : 8, "mode" : 4}], "name" : ""}, {"primitives" : [{"attributes" : {"POSITION" : 11}, "indices" : 10, "mode" : 4}], "name" : ""}, {"primitives" : [{"attributes" : {"POSITION" : 13}, "indices" : 12, "mode" : 4}], "name" : ""}, {"primitives" : [{"attributes" : {"POSITION" : 15}, "indices" : 14, "mode" : 4}], "name" : ""}], "nodes" : [{"mesh" : 0, "name" : "Body1"}, {"mesh" : 1, "name" : "Body2"}, {"mesh" : 2, "name" : "Body3"}, {"mesh" : 3, "name" : "Body4"}, {"mesh" : 4, "name" : "Body5"}, {"mesh" : 5, "name" : "Body6"}, {"mesh" : 6, "name" : "Body7"}, {"mesh" : 7, "name" : "Body8"}], "scene" : 0, "scenes" : [{"nodes" : [0, 1, 2, 3, 4, 5, 6, 7]}]}